<?xml version="1.0" encoding="UTF-8"?>
<svg id="Layer_1" data-name="Layer 1" xmlns="http://www.w3.org/2000/svg" viewBox="0 0 1190.81 398.84">
  <defs>
    <style>
      .cls-1 {
        fill: #103153;
      }

      .cls-2 {
        fill: #183b5c;
      }

      .cls-3 {
        fill: #1a435c;
      }

      .cls-4 {
        fill: #0a3552;
      }

      .cls-5 {
        fill: #b78c30;
      }

      .cls-6 {
        fill: #fcfcfc;
      }

      .cls-7 {
        fill: #093756;
      }

      .cls-8 {
        fill: #b58a30;
      }

      .cls-9 {
        fill: #183c5b;
      }

      .cls-10 {
        fill: #163555;
      }

      .cls-11 {
        fill: #193a55;
      }

      .cls-12 {
        fill: #fff;
      }

      .cls-13 {
        fill: #073552;
      }

      .cls-14 {
        fill: #013250;
      }

      .cls-15 {
        fill: #012c49;
      }

      .cls-16 {
        fill: #10304e;
      }

      .cls-17 {
        fill: #0a334e;
      }

      .cls-18 {
        fill: #072447;
      }

      .cls-19 {
        fill: #fbfbfb;
      }

      .cls-20 {
        fill: #015255;
      }

      .cls-21 {
        fill: #073755;
      }

      .cls-22 {
        fill: #0a3857;
      }

      .cls-23 {
        fill: #005053;
      }

      .cls-24 {
        fill: #025054;
      }

      .cls-25 {
        fill: #0a3751;
      }

      .cls-26 {
        fill: #143658;
      }

      .cls-27 {
        fill: #113659;
      }

      .cls-28 {
        fill: #025356;
      }

      .cls-29 {
        fill: #163b5c;
      }

      .cls-30 {
        fill: #173d5f;
      }

      .cls-31 {
        fill: #015052;
      }

      .cls-32 {
        fill: #073450;
      }

      .cls-33 {
        fill: #b58a31;
      }

      .cls-34 {
        fill: #083553;
      }

      .cls-35 {
        fill: #b78c31;
      }

      .cls-36 {
        fill: #103253;
      }

      .cls-37 {
        fill: #fbfbfc;
      }

      .cls-38 {
        fill: #025457;
      }

      .cls-39 {
        fill: #035255;
      }

      .cls-40 {
        fill: #b4892f;
      }

      .cls-41 {
        fill: #183b59;
      }

      .cls-42 {
        fill: #0b334f;
      }

      .cls-43 {
        fill: #fdfdfd;
      }

      .cls-44 {
        fill: #093a57;
      }
    </style>
  </defs>
  <rect class="cls-12" width="1190.81" height="398.84"/>
  <g>
    <path class="cls-28" d="M240.23,398.84l-59.46-59.51h-80.95s-.04-79.75-.04-79.75l-60.14-60.26,60.17-60.58-.04-79,80.85-.06L240.18,0l59.46,59.65,80.79.12.08,79.18,60.15,60.35-60.2,60.29.02,79.71-80.86.05-59.39,59.49ZM240.26,127.88l29.13-29.47,13.78-.12.11-28.16-43.02-43.37-43.22,43.25.09,28.23,13.8.24,29.32,29.4ZM179.15,78.36l-61.03.05.05,58.38,61.03-.05-.05-58.38ZM325.53,116.2l-24.38.05.03,20.48,60.93-.04.05-58.25-61.01-.03-.03,19.99,42.07.13-.08,29.75-17.53.03-.04-12.11ZM326.78,172.75c5.84-1.79,11.11-2.92,16.36-2.74l.23,73.99h26.42s44.62-44.75,44.62-44.75l-44.5-44.57-26.47.08-.59,6.12-16.81,3.61-.32-9.76-7.64-.26-1.21-3.49c-.28-.79-22.96-1.34-33.61.55l-.06-35.21-5.88.21-37.07,37.21-34-34.49c-2.58-2.61-5.37-3.84-9.18-2.77l-.08,35.14c-11.68-1.67-23.11-2.06-33.73-.54-1.45,3.02-3.75,4.61-8.35,2.94l-.59,10.14-17.09-2.76-.09-6.67-26.81-.1-44.27,44.67,44.36,44.78,26.61-.12.26-74.18c6.11.3,11.36,1.2,16.45,2.69l.05,73.66c32.55-1.35,63.2,4.87,86.57,28.33,22.95-23.5,54.62-30.03,86.43-28.39v-73.33ZM179.04,284.5l.3-16.04,17.58,4.18.33,11.85,6.2-.09,10.74-10.69c-12.7-8-26.78-10.17-41.62-11.36l-54.39-.1.03,58.63h60.84s.01-18.97.01-18.97l-41.91-.11.02-32.47,17.72-.15.18,15.42,23.95-.09ZM301.01,268.5l.09,52.4,60.99-.03.09-58.6h-56.04c-14.45,1.56-27.98,4.05-40.46,11.35l10.53,10.42c1.15,1.13,5.8.68,6.82.35l.31-12.76,17.66-3.12ZM283.24,329.09l-.17-27.08-14.87-.3-17.27-17.58-10.8,10.43-10.84-10.53-17.8,17.79-14.49.17.17,27.18,43.05,43.09,43.01-43.17Z"/>
    <path class="cls-32" d="M555.82,346.41l4.72-.86.36,12.18c3.99.73,7.44.93,11.17.7l-.12-28.38,5.66-.89-.19,29.35c-.04,6.85-10,7.38-18.9,3.89-6.55,2.38-15.09,3.71-21.07-2.09-5.95,2.76-12.53,4.52-19.75,4.04l-12.26-.82c-6.11-.41-13.07,2.16-19.26-.3-2.01-.8-3.02-.83-5.08-.02-4.75,1.86-10.75,1.25-15.59-.29l-5.81,1.22-25.55.02-1.3-5.44,7.61-.3-.16-27.84,5.34-1.67.13,21.09c6.9-6.89,15.93-8.77,20.42-3.18,2.45,3.05,2.67,6.36,2.51,11.44,3.74.26,7.92.19,11.64-.31l.35-11.36,5.02-.92.4,12.01c3.81.83,7.98,1.01,11.66.89-3.04-4.57-3.28-7.81-.84-11.91,1.64-2.76,5.9-5.55,10.2-4.18,2.59.82,5.16,3.71,5.84,5.72,1.12,3.3.51,6.51-1.55,10.13,8.64.83,17.3.45,25.68-3.24-4.38-5.4-9.97-7.92-16.37-4.8l.05-5.23c5.57-2.59,10.89-1.61,15.54,2.3l8.25,5.02c.57,1.19-.67,3.75-2.13,5.66,4.29.54,7.87.62,12.6,0l.79-11.66ZM509,352.25c0-2.47-2-4.47-4.47-4.47s-4.47,2-4.47,4.47,2,4.47,4.47,4.47,4.47-2,4.47-4.47ZM462.73,357.21c1.5-.62.86-5.49-.44-6.36-6.36-4.24-12.69.96-17.32,7.72,6.45.29,12.08.99,17.76-1.36Z"/>
    <path class="cls-13" d="M1023.22,339.4l.34,18.25c2.91,1.26,7.54,1.67,9.72-.28,1.27-1.23,1.18-5.22,1.05-7.95l4.81-.91.62,10.1c7.46-9.8,16.97-19.69,25.64-13.18,3.82,2.86,5.35,6.73,4.43,12.89l11.78-.24.53-11.5,4.87-.95.45,11.3c1.28,1.32,5.4,2.08,7.25,1.57,4.85-1.35,6.21-17.35,16.81-13.39,4.8,1.8,5.78,7.21,6.84,12.22,2.74,1.23,6.47,1.43,10.17,1.03l-.02-27.84,5.38-1.54-.04,30.02c0,6.39-9.31,6.7-17.86,3.43-3.51,5.09-9.12,2.14-15.81-1.28-4.05,4.14-10.12,4.22-14.97.82-5.36,3.05-11.82,2.72-17.86,1.32l-18.74,1.18c-4.24.27-9.01-.97-12.59-1.79-6.94,2.55-13.32,2.85-17.25-2.22-2.6.61-6.16,1.27-8.54.56-3.06-.92-5.04-3.76-5.26-7.15,1.32-5.7,6.09-8.5,11.6-10.34.76-3.07,3.53-4.89,6.67-4.13ZM1018.28,355.3l-.21-7.09c-2.31.15-6.75,2.36-8.57,4.63,1.2,3.64,5.78,3.61,8.78,2.46ZM1064.43,357.08c1.23-1.21-.39-5.87-1.76-6.67-5.76-3.36-12.15,1.2-16.93,8.11,5.76.33,12.69,1.06,18.69-1.44ZM1112.11,359.86c1.94-5.14-.32-9.68-4.41-9.55-2.03.06-4.45,3.92-5.08,6.36l9.49,3.19Z"/>
    <g>
      <path class="cls-20" d="M572.21,280.97c-21.47,6.69-44.18,6.83-65.22.74-22.76-6.6-39.2-23.73-44.65-46.47-7.33-30.57,3.3-67.93,28.69-88.97-7.45,32.54-14.75,68.37,12.7,89.56,20.61,14.74,57.7,13.26,78.09-.63,7.48-5.09,11.27-12.16,11.02-21.41l-3.84-84.65,36.49-22.16-.06,67.79c1.52,9.66,7.76,16.86,17.79,17.65,11.44.9,23.5,1.05,34.85.02,10.35-.94,16.95-8.62,16.71-18.52l-3.32-47.11,36.71-22.63.02,64.66c.63,16.6,13.19,24.19,29.46,24.19h56.99c12.48,0,24.12-1.74,36.31-5.03l-24.35-23.05c-7.16-6.78-15.74-11.21-24.62-15.47-3.94-.85-7.36-1.07-11.44-.53l3.26-36.42c40.36-23.07,92.65-32.26,137.08-15.98,11.93,4.37,22.03,10.41,31.1,19.17-.99,10.36-2.71,19.36-5.3,29.32l-45.21,44.4c8.1,2.14,16.52,3.63,25.22,3.6l54.94-.17c10.55-.03,18.59-7,22.96-16.08l16.89-35.1c5.14-10.68,12.82-19.5,21.99-26.93,21.05-17.05,50.67-14.35,69.15,5.28,18.51,19.65,24.84,50.52,24.12,77.94l-22.73,30.28c-2.22,2.96-6,4.84-9.97,5.22-31.04,2.97-61.8-6.76-85.59-27.73-8.38,13.67-18.11,25.08-34.82,25.56l-63.9-.24c-19.65-.07-37.77-6.42-53.53-18.34-18.75,11.71-39.97,18.41-62.56,18.42l-62.9.02c-17.41-1.31-32.46-9.69-39.75-25.61-7.38,15.21-17.67,24.7-34.31,25.79l-29-.19c-9.2-.06-17.71-3.03-25.18-8.78-4.96,28.1-22.8,50.03-50.28,58.59ZM881.68,175.12c16.97-11.63,30.22-24.4,43.05-39.15-25.69-14.1-60.28-11.47-87.48-2.75l26.27,23.79,18.16,18.11ZM1115.08,194.98c-1.77-16.72-6.99-31.07-16.19-43.17-5.3-6.19-12.15-9.86-19.78-10.03-16.3-.35-26.34,16.75-33.37,31.9,19.59,15.29,44.05,23.35,69.34,21.3Z"/>
      <polygon class="cls-5" points="719.8 300.25 696.81 277.51 674.2 300.1 650.91 277.04 674.11 253.59 696.87 276.52 719.71 253.4 742.83 277.22 719.8 300.25"/>
      <path class="cls-39" d="M1024.04,84.28l2.67-12.31c14.03-3.37,26.97-7.97,39.18-14.57-5.25-4.49-10.91-8.72-11.12-15.76-.45-14.88,12.06-28.33,26.63-29.93,5.91-.65,11.31,1.2,15.06,4.77,10.41,9.9,3.29,28.88-9.41,40.83-16.25,15.29-39.81,22.52-63,26.96ZM1080.3,46.86c4.43-4.41,7.1-9.05,5.52-14.16-1.42-4.59-6.71-5.84-11.05-4.31-3.23,1.14-7.22,5.19-5.18,9.87,1.7,3.91,6.74,6.98,10.71,8.6Z"/>
      <rect class="cls-35" x="530.25" y="62.36" width="33.66" height="33.84" transform="translate(103.81 409.58) rotate(-44.94)"/>
    </g>
    <path class="cls-34" d="M933.58,356.59c-1.62-.1-4.52-1.81-5.18-3.26-2.14-4.69.64-12.09,6.34-13.87,3.38-1.06,7.62.54,9.31,4.11,2.71,5.71,3.15,13.69-.59,19.37-11.53,3.19-26.66.28-25.3-.71-5.13,3.72-6.51,4.36-15.84-1.23-4.1,4.51-9.96,3.8-15.12,1.32-7.44,2.62-16.14,3.54-19.84-2.01-3.79,1.45-9.15,1.95-12.32-1.99-2.39-2.97-1.19-8.78,2.32-10.73l8.39-4.67c.6-2.32,2.91-4.57,6.09-3.65l.4,17.98c3.41,1.71,7.41,1.81,11.57.37l.4-10.77,5.03-1.08.78,10.98c.39,2.43,7.57,2.55,8.69.49l4.38-8.05c1.72-3.17,5.4-5.13,9.02-4.59,3.14.46,5.92,4.05,7.04,7.71l1.53,4.98c.35,1.14,3.57,1.48,4.86,1.46l15.01-.18.16-1.53-7.15-.46ZM940.41,347.86c-.3-1.9-3.24-3.88-5.1-3.12-1.31.54-2.84,3.05-2.71,4.66.28,3.43,8.51,2.88,8.36,1.94l-.56-3.48ZM866.6,355.04l-.07-6.85c-3.53.84-7.78,2.5-7.67,5.53.09,2.47,7.01,3.24,7.74,1.31ZM914.2,359.81c.27-2.67.34-4.86.1-6.69-.18-1.38-3.06-3.33-4.54-2.97-2.51.61-4.45,3.66-5.32,6.55l9.76,3.11Z"/>
    <path class="cls-21" d="M705.28,350.13l-.39-4.92c11.49-5.08,14.53,3.37,23.4,7.46.31.34.57,3.46-.12,4.17-.83.86-2.51,1.52-4.26,2.36-8.44,4.05-17.54,6.92-27.1,4.16-2.19-.63-3.07-.78-5.4.12-5.37,2.07-11.58.03-16.94.14l-18.85.38c-2.3.05-4.87-3.84-4.88-6.01l-.16-27.54,5.15-1.44.24,28.65c3.86.78,7.22.96,10.84.93-3.24-4.67-3.08-7.65-.77-11.78,1.63-2.91,5.72-5.67,10.12-4.42,2.79.79,5.41,3.56,6.01,5.73.99,3.54.58,6.34-1.41,10.53l10.46-.6-.05-28.06,5.28-.9.22,28.68c8.7,2.18,16.34.72,24.43-2.72-4.3-4.59-8.41-7.99-15.82-4.92ZM678.05,352.42c0-2.48-2.01-4.49-4.49-4.49s-4.49,2.01-4.49,4.49,2.01,4.49,4.49,4.49,4.49-2.01,4.49-4.49Z"/>
    <path class="cls-7" d="M945.7,370.02c6.1.68,11.58-3.58,10.52-9.45l-2.36-13.12,5.26-1.64,2.71,12.09,9.25.52v-28.43s5.39-.59,5.39-.59l.05,28.34c0,1.59-1.55,5.43-3.12,5.86-3.69,1.01-8.88.73-12.68-.39.31,7.33-7.59,13.6-13.93,12.1-.83-.48-1.23-3.42-1.08-5.3Z"/>
    <path class="cls-17" d="M827.78,349.59l-12.26-11.16,3.33-3.93,12.19,11.16.9-15.65,4.57-.87c3.26,6.94-1.63,14.56-1.06,21.14.51,3.45,6.53,10.55-.73,13-4.54,1.53-11.36.84-17.28.78l.41-5.67,9.92-8.8ZM834.02,358.47l-3.04-5.87-6.76,6.15,9.8-.28Z"/>
    <path class="cls-25" d="M608.08,359.64c-2.84-4.49-.91-13.41.87-13.62,6.15-.71.99,5.3,3.35,9.35.93,1.59,4.34,3.43,6.35,3.41l20.98-.18-1.29-12.28,5.01-1.88c1.52,7.36,1.78,12.4-.24,18.96-12.05,1.07-30.63,3.22-35.04-3.76Z"/>
    <path class="cls-4" d="M752.39,364.5c-5.94.03-9.96-4.02-9.04-9.87.4-2.58,3.03-6.11,4.22-8.55.75-1.54,2.63-5.72,4.53-4.74,8.31,4.3,12.79,13.84,7.9,20.12-1.25,1.6-4.68,3.02-7.6,3.04ZM757.28,355.51c-.48-2.9-2.74-5.49-4.56-6.75-2.84,1.28-5.28,4.48-4.49,7.63.35,1.39,3.44,2.58,4.79,2.56s4.49-2.02,4.25-3.44Z"/>
    <polygon class="cls-3" points="1141.15 364.23 1141.1 330.11 1146.34 329.19 1146.49 363.84 1141.15 364.23"/>
    <path class="cls-22" d="M760.73,370.2c5.32.36,10.3-2.54,10.76-8.67.33-4.42-1.07-9.1-2.54-13.68l5.62-2.2c1.29,6.41,2.37,11.88,1.69,17.78-.9,7.76-8.67,14.08-14.49,11.73-.73-.29-.8-1.79-1.04-4.96Z"/>
    <path class="cls-42" d="M793.55,364.18l.25-6.15,13.92.43c-1.27-5.61-3.42-8.43-7.45-12.89l4.16-4.17c5.56,6.69,9.76,14.53,6.6,19.95-.83,1.43-3.79,3.07-5.49,3.04l-11.98-.21Z"/>
    <polygon class="cls-15" points="584.48 364.5 584.45 330.09 589.9 329.05 589.91 363.73 584.48 364.5"/>
    <polygon class="cls-44" points="782.84 363.95 782.71 330.43 787.97 329 787.95 363.94 782.84 363.95"/>
    <polygon class="cls-14" points="983.51 364.1 983.43 330.48 988.75 329.04 988.77 363.86 983.51 364.1"/>
    <path class="cls-1" d="M828.72,378.3l-10.54.89,1.6-4.27c.25-1.81.55-4.14,1.31-5.32.92-1.44,4.72-2.42,6.02-1.5.4.28,1.22,2.14.77,2.34l-2.02.9-2.53,1.14c-.79.35,1.33,2.67,2.16,2.59l2.78-.27c.69-.07.59,2.28.45,3.51Z"/>
    <path class="cls-16" d="M484.35,375c-.91-.97-2.52-2.69-3.04-2.18l-2.86,2.78-3.4-2.24c-1-.66.56-3.9,1.72-4.22s3.52,1.01,4.91,1.7c1.15-.62,3.71-2.15,4.83-1.75s2.46,3.27,1.67,4.17c-.97,1.1-3.07,2.56-3.84,1.74Z"/>
    <path class="cls-29" d="M676.09,331.76c.9-.8,2.92.56,3.88,1.86.71.96-.62,3.52-1.68,4.01s-3.71-1.2-4.83-1.91c-1.13.62-3.59,2.32-4.71,1.93-1.22-.42-2.6-3.17-1.66-4.28,1.3-1.54,3.5-2.46,4.32-1.23s1.51,2.43,1.8,2.17l2.88-2.55Z"/>
    <path class="cls-36" d="M755.2,337.2l-2.34-2.29c-.52-.51-1.91.81-2.92,1.94-.86.95-3.21-.17-4.48-1.66-.83-.97,1.08-3.4,2.34-4.13,1.11-.64,3.52,1.68,4.46,2.62.94-.99,3.29-3.39,4.24-2.79s2.85,2.63,2.61,3.74c-.27,1.26-3.1,3.42-3.93,2.57Z"/>
    <path class="cls-26" d="M1016.17,331.96c.95.24,3.28-3.38,3.97-2.7l2.95,2.95c.7.7-1.34,2.63-2.06,3.3-.84.78-3.49-.95-4.76-1.58-.9-.44-2.96,2.19-3.92,1.99-1.12-.24-3.58-2.16-3.27-3.26.26-.95,1.69-2.33,2.73-3.31.84-.78,2.88,2.24,4.37,2.61Z"/>
    <path class="cls-30" d="M868.97,336.49l-4.37-3.73c-1.1,1.36-2.89,3.37-3.97,3.02s-2.93-2.71-2.52-3.78c.5-1.3,3.11-3.35,4-2.36l2.21,2.44c.51.56,2.31-1.53,2.96-2.33.73-.91,2.95.43,3.93,1.62s-.15,3.09-2.23,5.11Z"/>
    <path class="cls-27" d="M936.53,331.71l3.69-2.79,3.2,2.83c.73.65-1.37,2.72-2.27,3.47s-2.36-.47-4.23-2.49l-3.99,3.18-3.19-3.54c-.69-.76,1.81-2.98,2.77-3.33s2.83,1.88,4.02,2.66Z"/>
    <rect class="cls-2" x="627.04" y="335.82" width="5.79" height="5.84" transform="translate(-48.58 564.97) rotate(-46.71)"/>
    <rect class="cls-41" x="501.36" y="331.81" width="5.71" height="5.69" transform="translate(-90.32 447.59) rotate(-44.33)"/>
    <rect class="cls-11" x="1080.91" y="334.67" width="5.88" height="5.59" transform="translate(97.88 900.03) rotate(-47)"/>
    <rect class="cls-9" x="619.37" y="336.03" width="5.59" height="5.54" transform="translate(-56.83 540.89) rotate(-45.15)"/>
    <rect class="cls-10" x="886.31" y="369.09" width="5.52" height="5.65" transform="translate(2.44 749.62) rotate(-45.77)"/>
    <rect class="cls-9" x="453.86" y="333.28" width="5.71" height="5.85" transform="translate(-99.58 446.46) rotate(-47.57)"/>
    <rect class="cls-18" x="878.65" y="369.25" width="5.8" height="5.66" transform="translate(9.95 766.9) rotate(-47.25)"/>
    <path class="cls-6" d="M326.78,172.75v73.33c-31.81-1.63-63.48,4.9-86.43,28.39-23.37-23.46-54.02-29.68-86.57-28.33l-.05-73.66c-5.09-1.49-10.34-2.39-16.45-2.69l-.26,74.18-26.61.12-44.36-44.78,44.27-44.67,26.81.1.09,6.67,17.09,2.76.59-10.14c4.6,1.67,6.91.08,8.35-2.94,10.62-1.52,22.05-1.12,33.73.54l.08-35.14c3.81-1.07,6.6.16,9.18,2.77l34,34.49,37.07-37.21,5.88-.21.06,35.21c10.65-1.89,33.34-1.34,33.61-.55l1.21,3.49,7.64.26.32,9.76,16.81-3.61.59-6.12,26.47-.08,44.5,44.57-44.62,44.75h-26.42s-.23-74-.23-74c-5.25-.19-10.52.94-16.36,2.74ZM236.05,182.61c-6.71-6.94-13.35-11.24-21.44-14.75-14.79-6.21-30.61-7.93-46.83-6.78l.05,73.72c25.25-.72,49.08,7.06,68.14,23.18l.09-75.37ZM312.34,234.56l.04-73.29c-24.82-2.3-50.72,3.31-68.08,21.69l.09,75.41c20.22-17.48,42.01-23.44,67.95-23.81ZM112.14,182.64l-16.69,16.69,16.61,16.61,16.69-16.69-16.61-16.61ZM368.3,182.55l-16.73,16.73,16.66,16.66,16.73-16.73-16.66-16.66Z"/>
    <path class="cls-43" d="M240.26,127.88l-29.32-29.4-13.8-.24-.09-28.23,43.22-43.25,43.02,43.37-.11,28.16-13.78.12-29.13,29.47ZM240.41,92.26l15.88-16.5-16.17-16.54-16.02,16.63,16.31,16.42Z"/>
    <path class="cls-43" d="M283.24,329.09l-43.01,43.17-43.05-43.09-.17-27.18,14.49-.17,17.8-17.79,10.84,10.53,10.8-10.43,17.27,17.58,14.87.3.17,27.08ZM240.17,306.86l-16.56,16.77,16.62,16.41,16.56-16.77-16.62-16.41Z"/>
    <path class="cls-37" d="M301.01,268.5l-17.66,3.12-.31,12.76c-1.02.34-5.67.78-6.82-.35l-10.53-10.42c12.48-7.3,26.01-9.79,40.46-11.35h56.04s-.09,58.6-.09,58.6l-60.99.03-.09-52.4ZM310.68,301.87h32.54s-.01-32.59-.01-32.59l-17.52-.1-.28,15.17-14.76.21.03,17.31Z"/>
    <path class="cls-19" d="M179.04,284.5l-23.95.09-.18-15.42-17.72.15-.02,32.47,41.91.11v18.97s-60.85,0-60.85,0l-.03-58.63,54.39.1c14.84,1.19,28.92,3.36,41.62,11.36l-10.74,10.69-6.2.09-.33-11.85-17.58-4.18-.3,16.04Z"/>
    <path class="cls-6" d="M179.15,78.36l.05,58.38-61.03.05-.05-58.38,61.03-.05ZM155.07,116.22l16.48-.09-.07-17.73-34.27.08-.05,29.78,17.71-.02.21-12.01Z"/>
    <polygon class="cls-6" points="325.53 116.2 325.58 128.31 343.11 128.28 343.19 98.53 301.13 98.41 301.15 78.42 362.16 78.45 362.11 136.69 301.18 136.73 301.15 116.25 325.53 116.2"/>
    <path class="cls-31" d="M236.05,182.61l-.09,75.37c-19.05-16.12-42.89-23.91-68.14-23.18l-.05-73.72c16.22-1.15,32.04.57,46.83,6.78,8.1,3.51,14.74,7.82,21.44,14.75Z"/>
    <path class="cls-23" d="M312.34,234.56c-25.93.37-47.73,6.33-67.95,23.81l-.09-75.41c17.36-18.39,43.25-24,68.08-21.69l-.04,73.29Z"/>
    <rect class="cls-40" x="100.3" y="187.55" width="23.6" height="23.49" transform="translate(-108.09 137.64) rotate(-45)"/>
    <rect class="cls-40" x="356.43" y="187.47" width="23.66" height="23.56" transform="translate(-33.03 318.76) rotate(-45)"/>
    <polygon class="cls-33" points="240.41 92.26 224.1 75.85 240.11 59.22 256.28 75.76 240.41 92.26"/>
    <rect class="cls-8" x="228.42" y="311.77" width="23.56" height="23.36" transform="translate(-158.73 267.13) rotate(-45.37)"/>
    <polygon class="cls-38" points="310.68 301.87 310.65 284.55 325.42 284.35 325.69 269.17 343.21 269.28 343.22 301.87 310.68 301.87"/>
    <polygon class="cls-24" points="155.07 116.22 154.86 128.24 137.15 128.26 137.2 98.48 171.47 98.4 171.54 116.13 155.07 116.22"/>
    <rect class="cls-41" x="557.61" y="335.14" width="5.71" height="5.69" transform="translate(-76.64 487.84) rotate(-44.33)"/>
    <rect class="cls-41" x="549.55" y="335.14" width="5.71" height="5.69" transform="translate(-78.93 482.21) rotate(-44.33)"/>
  </g>
</svg>