<?xml version="1.0" encoding="UTF-8"?>
<svg id="Layer_1" data-name="Layer 1" xmlns="http://www.w3.org/2000/svg" viewBox="0 0 401.03 398.84">
  <defs>
    <style>
      .cls-1 {
        fill: #015054;
      }

      .cls-2 {
        fill: #b58a30;
      }

      .cls-3 {
        fill: #b58a31;
      }

      .cls-4 {
        fill: #b5892f;
      }

      .cls-5 {
        fill: #014f52;
      }

      .cls-6 {
        fill: #025457;
      }

      .cls-7 {
        fill: #b4892f;
      }

      .cls-8 {
        fill: #025154;
      }

      .cls-9 {
        fill: #025256;
      }
    </style>
  </defs>
  <path class="cls-9" d="M200.6,398.84l-59.46-59.51H60.19s-.04-79.75-.04-79.75L0,199.32l60.17-60.58-.04-79,80.85-.06L200.55,0l59.46,59.65,80.79.12.08,79.18,60.15,60.35-60.2,60.29.02,79.71-80.86.05-59.39,59.49ZM200.63,127.88l29.13-29.47,13.78-.12.11-28.16-43.02-43.37-43.22,43.25.09,28.23,13.8.24,29.32,29.4ZM139.52,78.36l-61.03.05.05,58.38,61.03-.05-.05-58.38ZM285.9,116.2l-24.38.05.03,20.48,60.93-.04.05-58.25-61.01-.03-.03,19.99,42.07.13-.08,29.75-17.54.03-.04-12.11ZM287.15,172.75c5.84-1.79,11.11-2.92,16.36-2.74l.23,73.99h26.42s44.62-44.75,44.62-44.75l-44.5-44.57-26.47.08-.59,6.12-16.81,3.61-.32-9.75-7.64-.28-1.22-3.48c-.28-.79-22.95-1.34-33.61.55l-.06-35.21-5.88.21-37.07,37.21-34-34.49c-2.58-2.61-5.37-3.84-9.18-2.77l-.08,35.14c-11.69-1.67-23.14-2.06-33.72-.55-1.45,3.04-3.76,4.62-8.36,2.95l-.59,10.14-17.09-2.76-.09-6.67-26.81-.1-44.27,44.67,44.36,44.78,26.61-.12.26-74.18c6.11.3,11.36,1.2,16.45,2.69l.05,73.66c32.55-1.35,63.2,4.87,86.57,28.33,22.95-23.5,54.62-30.03,86.43-28.39v-73.33ZM139.41,284.5l.3-16.04,17.58,4.18.33,11.85,6.21-.09,10.74-10.69c-12.7-8-26.78-10.17-41.62-11.36l-54.39-.1.03,58.63h60.83s.01-18.97.01-18.97l-41.91-.11.02-32.47,17.72-.15.18,15.42,23.95-.09ZM261.38,268.5l.09,52.4,60.99-.03.09-58.6h-56.04c-14.45,1.56-27.98,4.05-40.46,11.35l10.53,10.42c1.15,1.13,5.8.68,6.82.35l.31-12.76,17.66-3.12ZM243.61,329.09l-.17-27.08-14.87-.3-17.27-17.58-10.8,10.43-10.84-10.53-17.8,17.79-14.49.17.17,27.18,43.05,43.09,43.01-43.17Z"/>
  <path class="cls-5" d="M196.42,182.61l-.09,75.37c-19.05-16.12-42.89-23.91-68.14-23.18l-.05-73.72c16.22-1.15,32.04.57,46.83,6.78,8.1,3.51,14.74,7.82,21.44,14.75Z"/>
  <path class="cls-1" d="M272.71,234.56c-25.93.37-47.73,6.33-67.95,23.81l-.09-75.41c17.36-18.39,43.25-24,68.08-21.69l-.04,73.29Z"/>
  <rect class="cls-4" x="60.67" y="187.55" width="23.6" height="23.49" transform="translate(-119.7 109.62) rotate(-45)"/>
  <rect class="cls-7" x="316.8" y="187.47" width="23.66" height="23.56" transform="translate(-44.63 290.73) rotate(-45)"/>
  <polygon class="cls-3" points="200.78 92.26 184.47 75.85 200.48 59.22 216.65 75.76 200.78 92.26"/>
  <rect class="cls-2" x="188.79" y="311.77" width="23.56" height="23.36" transform="translate(-170.52 238.93) rotate(-45.37)"/>
  <polygon class="cls-6" points="271.05 301.87 271.02 284.55 285.79 284.35 286.06 269.17 303.58 269.28 303.59 301.87 271.05 301.87"/>
  <polygon class="cls-8" points="115.44 116.22 115.23 128.24 97.52 128.26 97.57 98.48 131.84 98.4 131.91 116.13 115.44 116.22"/>
</svg>